<svg id="Layer_1" data-name="Layer 1" width="60" height="60" xmlns="http://www.w3.org/2000/svg" xmlns:xlink="http://www.w3.org/1999/xlink" viewBox="0 0 60 60"><defs><style>.cls-1{fill:none;}.cls-2{fill:#fff;fill-opacity:0;}.cls-3{fill:#fe6400;}.cls-4{clip-path:url(#clip-path);}.cls-5{fill:#1a0797;}.cls-6{fill:#1a0897;}.cls-7{fill:#1a0998;}.cls-8{fill:#1b0a98;}.cls-9{fill:#1b0b99;}.cls-10{fill:#1b0c99;}.cls-11{fill:#1b0d9a;}.cls-12{fill:#1b0e9a;}.cls-13{fill:#1c0f9b;}.cls-14{fill:#1c109b;}.cls-15{fill:#1c119c;}.cls-16{fill:#1c129c;}.cls-17{fill:#1c139d;}.cls-18{fill:#1c149d;}.cls-19{fill:#1d159e;}.cls-20{fill:#1d169e;}.cls-21{fill:#1d179f;}.cls-22{fill:#1d189f;}.cls-23{fill:#1d19a0;}.cls-24{fill:#1e1aa0;}.cls-25{fill:#1e1ba1;}.cls-26{fill:#1e1ca1;}.cls-27{fill:#1e1da2;}.cls-28{fill:#1e1ea2;}.cls-29{fill:#1f1fa3;}.cls-30{fill:#1f20a3;}.cls-31{fill:#1f21a4;}.cls-32{fill:#1f22a4;}.cls-33{fill:#1f23a5;}.cls-34{fill:#1f24a5;}.cls-35{fill:#2025a6;}.cls-36{fill:#2026a6;}.cls-37{fill:#2027a7;}.cls-38{fill:#2028a7;}.cls-39{fill:#2029a8;}.cls-40{fill:#212aa8;}.cls-41{fill:#212ba9;}.cls-42{fill:#212ca9;}.cls-43{fill:#212daa;}.cls-44{fill:#212eaa;}.cls-45{fill:#222fab;}.cls-46{fill:#2230ab;}.cls-47{fill:#2231ac;}.cls-48{fill:#2232ac;}.cls-49{fill:#2233ad;}.cls-50{fill:#2234ad;}.cls-51{fill:#2335ad;}.cls-52{fill:#2336ae;}.cls-53{fill:#2337ae;}.cls-54{fill:#2338af;}.cls-55{fill:#2339af;}.cls-56{fill:#243ab0;}.cls-57{fill:#243bb0;}.cls-58{fill:#243cb1;}.cls-59{fill:#243db1;}.cls-60{fill:#243eb2;}.cls-61{fill:#253fb2;}.cls-62{fill:#2540b3;}.cls-63{fill:#2541b3;}.cls-64{fill:#2542b4;}.cls-65{fill:#2543b4;}.cls-66{fill:#2544b5;}.cls-67{fill:#2645b5;}.cls-68{fill:#2646b6;}.cls-69{fill:#2647b6;}.cls-70{fill:#2648b7;}.cls-71{fill:#2649b7;}.cls-72{fill:#274bb8;}.cls-73{fill:#274cb8;}.cls-74{fill:#274db9;}.cls-75{fill:#274eb9;}.cls-76{fill:#274fba;}.cls-77{fill:#2850ba;}.cls-78{fill:#2851bb;}.cls-79{fill:#2852bb;}.cls-80{fill:#2853bc;}.cls-81{fill:#2854bc;}.cls-82{fill:#2855bd;}.cls-83{fill:#2956bd;}.cls-84{fill:#2957be;}.cls-85{fill:#2958be;}.cls-86{fill:#2959bf;}.cls-87{fill:#295abf;}.cls-88{fill:#2a5bc0;}.cls-89{fill:#2a5cc0;}.cls-90{fill:#2a5dc1;}.cls-91{fill:#2a5ec1;}.cls-92{fill:#2a5fc2;}.cls-93{fill:#2b60c2;}.cls-94{fill:#2b61c2;}.cls-95{fill:#2b62c3;}.cls-96{fill:#2b63c3;}.cls-97{fill:#2b64c4;}.cls-98{fill:#2b65c4;}.cls-99{fill:#2c66c5;}.cls-100{fill:#2c67c5;}.cls-101{fill:#2c68c6;}.cls-102{fill:#2c69c6;}.cls-103{fill:#2c6ac7;}.cls-104{fill:#2d6bc7;}.cls-105{fill:#2d6cc8;}.cls-106{fill:#2d6dc8;}.cls-107{fill:#2d6ec9;}.cls-108{fill:#2d6fc9;}.cls-109{fill:#2e70ca;}.cls-110{fill:#2e71ca;}.cls-111{fill:#2e72cb;}.cls-112{fill:#2e73cb;}.cls-113{fill:#2e74cc;}.cls-114{fill:#2e75cc;}.cls-115{fill:#2f76cd;}.cls-116{fill:#2f77cd;}.cls-117{fill:#2f78ce;}.cls-118{fill:#2f79ce;}.cls-119{fill:#2f7acf;}.cls-120{fill:#307bcf;}.cls-121{fill:#307cd0;}.cls-122{fill:#307dd0;}.cls-123{fill:#307ed1;}.cls-124{fill:#307fd1;}.cls-125{fill:#3180d2;}.cls-126{fill:#3181d2;}.cls-127{fill:#3182d3;}.cls-128{fill:#3183d3;}.cls-129{fill:#3184d4;}.cls-130{fill:#3185d4;}.cls-131{fill:#3286d5;}.cls-132{fill:#3287d5;}.cls-133{fill:#3288d6;}.cls-134{fill:#3289d6;}.cls-135{fill:#328ad7;}.cls-136{fill:#338bd7;}.cls-137{fill:#338cd8;}.cls-138{fill:#338dd8;}.cls-139{clip-path:url(#clip-path-2);}.cls-140{fill:#fbb652;}.cls-141{fill:#fbb551;}.cls-142{fill:#fbb450;}.cls-143{fill:#fbb34f;}.cls-144{fill:#fbb24e;}.cls-145{fill:#fbb14d;}.cls-146{fill:#fbb04c;}.cls-147{fill:#fbaf4b;}.cls-148{fill:#fbae4a;}.cls-149{fill:#fbad49;}.cls-150{fill:#fbac48;}.cls-151{fill:#fbab47;}.cls-152{fill:#fbaa46;}.cls-153{fill:#fba945;}.cls-154{fill:#fca844;}.cls-155{fill:#fca743;}.cls-156{fill:#fca642;}.cls-157{fill:#fca541;}.cls-158{fill:#fca440;}.cls-159{fill:#fca33f;}.cls-160{fill:#fca23e;}.cls-161{fill:#fca13d;}.cls-162{fill:#fca03c;}.cls-163{fill:#fc9f3b;}.cls-164{fill:#fc9e3a;}.cls-165{fill:#fc9d39;}.cls-166{fill:#fc9c38;}.cls-167{fill:#fc9b37;}.cls-168{fill:#fc9a36;}.cls-169{fill:#fc9935;}.cls-170{fill:#fc9834;}.cls-171{fill:#fc9733;}.cls-172{fill:#fc9632;}.cls-173{fill:#fc9531;}.cls-174{fill:#fc9430;}.cls-175{fill:#fc932f;}.cls-176{fill:#fc922e;}.cls-177{fill:#fc912d;}.cls-178{fill:#fc902c;}.cls-179{fill:#fc8f2b;}.cls-180{fill:#fc8e2a;}.cls-181{fill:#fd8c28;}.cls-182{fill:#fd8b27;}.cls-183{fill:#fd8a26;}.cls-184{fill:#fd8925;}.cls-185{fill:#fd8824;}.cls-186{fill:#fd8723;}.cls-187{fill:#fd8622;}.cls-188{fill:#fd8521;}.cls-189{fill:#fd8420;}.cls-190{fill:#fd831f;}.cls-191{fill:#fd821e;}.cls-192{fill:#fd811d;}.cls-193{fill:#fd801c;}.cls-194{fill:#fd7f1b;}.cls-195{fill:#fd7e1a;}.cls-196{fill:#fd7d19;}.cls-197{fill:#fd7c18;}.cls-198{fill:#fd7b17;}.cls-199{fill:#fd7a16;}.cls-200{fill:#fd7915;}.cls-201{fill:#fd7814;}.cls-202{fill:#fd7713;}.cls-203{fill:#fd7612;}.cls-204{fill:#fd7511;}.cls-205{fill:#fd7410;}.cls-206{fill:#fd730f;}.cls-207{fill:#fd720e;}.cls-208{fill:#fe710d;}.cls-209{fill:#fe700c;}.cls-210{fill:#fe6f0b;}.cls-211{fill:#fe6e0a;}.cls-212{fill:#fe6d09;}.cls-213{fill:#fe6c08;}.cls-214{fill:#fe6b07;}.cls-215{fill:#fe6a06;}.cls-216{fill:#fe6905;}.cls-217{fill:#fe6804;}.cls-218{fill:#fe6703;}.cls-219{fill:#fe6602;}.cls-220{fill:#fe6501;}.cls-221{clip-path:url(#clip-path-3);}.cls-222{fill:#fd6500;}.cls-223{fill:#fd6601;}.cls-224{fill:#fd6702;}.cls-225{fill:#fd6803;}.cls-226{fill:#fd6904;}.cls-227{fill:#fd6a05;}.cls-228{fill:#fd6b06;}.cls-229{fill:#fd6c07;}.cls-230{fill:#fd6d08;}.cls-231{fill:#fd6e09;}.cls-232{fill:#fd6f0a;}.cls-233{fill:#fd700b;}.cls-234{fill:#fd710c;}.cls-235{fill:#fd720d;}.cls-236{fill:#fd730e;}.cls-237{fill:#fd740f;}.cls-238{fill:#fd7510;}.cls-239{fill:#fd7611;}.cls-240{fill:#fd7712;}.cls-241{fill:#fd7813;}.cls-242{fill:#fd7914;}.cls-243{fill:#fc7a15;}.cls-244{fill:#fc7b16;}.cls-245{fill:#fc7c17;}.cls-246{fill:#fc7d18;}.cls-247{fill:#fc7e19;}.cls-248{fill:#fc7f1a;}.cls-249{fill:#fc801b;}.cls-250{fill:#fc811c;}.cls-251{fill:#fc821d;}.cls-252{fill:#fc831e;}.cls-253{fill:#fc841f;}.cls-254{fill:#fc8520;}.cls-255{fill:#fc8621;}.cls-256{fill:#fc8722;}.cls-257{fill:#fc8823;}.cls-258{fill:#fc8924;}.cls-259{fill:#fc8a25;}.cls-260{fill:#fc8b26;}.cls-261{fill:#fc8c27;}.cls-262{fill:#fc8d28;}.cls-263{fill:#fc8e29;}.cls-264{fill:#fc8f2a;}.cls-265{fill:#fc902b;}.cls-266{fill:#fc912c;}.cls-267{fill:#fc922d;}.cls-268{fill:#fc932e;}.cls-269{fill:#fc942f;}.cls-270{fill:#fc9530;}.cls-271{fill:#fc9631;}.cls-272{fill:#fc9732;}.cls-273{fill:#fc9833;}.cls-274{fill:#fc9934;}.cls-275{fill:#fc9a35;}.cls-276{fill:#fc9b36;}.cls-277{fill:#fc9c37;}.cls-278{fill:#fc9d38;}.cls-279{fill:#fc9e39;}.cls-280{fill:#fc9f3a;}.cls-281{fill:#fca03b;}.cls-282{fill:#fca13c;}.cls-283{fill:#fba23e;}.cls-284{fill:#fba23f;}.cls-285{fill:#fba340;}.cls-286{fill:#fba441;}.cls-287{fill:#fba542;}.cls-288{fill:#fba643;}.cls-289{fill:#fba744;}.cls-290{fill:#fba845;}.cls-291{fill:#fba946;}.cls-292{fill:#fbaa47;}.cls-293{fill:#fbab48;}.cls-294{fill:#fbac49;}.cls-295{fill:#fbad4a;}.cls-296{fill:#fbae4b;}.cls-297{fill:#fbaf4c;}.cls-298{fill:#fbb04d;}.cls-299{fill:#fbb14e;}.cls-300{fill:#fbb24f;}.cls-301{fill:#fbb350;}.cls-302{fill:#fbb451;}.cls-303{fill:#fbb552;}.cls-304{fill:#fbb653;}.cls-305{fill:#fbb754;}.cls-306{fill:#fbb855;}.cls-307{fill:#fbb956;}.cls-308{fill:#fbba57;}.cls-309{clip-path:url(#clip-path-4);}.cls-310{fill:#1b0f9b;}.cls-311{fill:#1c109c;}.cls-312{fill:#1c129d;}.cls-313{fill:#1d149e;}.cls-314{fill:#2024a5;}.cls-315{fill:#2129a8;}.cls-316{fill:#222eaa;}.cls-317{fill:#2334ad;}.cls-318{fill:#2335ae;}.cls-319{fill:#2337af;}.cls-320{fill:#2644b4;}.cls-321{fill:#2646b5;}.cls-322{fill:#2648b6;}.cls-323{fill:#2749b7;}.cls-324{fill:#274ab7;}.cls-325{fill:#284eb9;}.cls-326{fill:#284fba;}.cls-327{fill:#2954bc;}.cls-328{fill:#2955bd;}.cls-329{fill:#2a59bf;}.cls-330{fill:#2a5abf;}.cls-331{fill:#2b5ec1;}.cls-332{fill:#2b5fc2;}.cls-333{fill:#2c64c4;}.cls-334{fill:#2c65c4;}.cls-335{fill:#2d69c6;}.cls-336{fill:#2d6ac7;}.cls-337{fill:#2e6ec9;}.cls-338{fill:#2e6fc9;}.cls-339{clip-path:url(#clip-path-5);}.cls-340{fill:#2339b0;}.cls-341{fill:#243bb1;}.cls-342{fill:#243eb1;}.cls-343{fill:#243fb2;}.cls-344{fill:#2540b2;}.cls-345{fill:#2542b3;}.cls-346{fill:#2544b4;}.cls-347{fill:#264ab7;}.cls-348{fill:#2b61c3;}.cls-349{fill:#2b63c4;}.cls-350{fill:#2c65c5;}.cls-351{fill:#2c67c6;}.cls-352{fill:#2c69c7;}.cls-353{fill:#2d6bc8;}.cls-354{fill:#2d6dc9;}.cls-355{fill:#2d6fca;}.cls-356{fill:#2e71cb;}</style><clipPath id="clip-path" transform="translate(0 0)"><path class="cls-1" d="M13.88,36V26.87a10.72,10.72,0,0,1,10.7-10.75h0a10.78,10.78,0,0,1,21.52,0h-19a2.52,2.52,0,0,0-1.77.74,2.6,2.6,0,0,0-.6,1,2.75,2.75,0,0,0-.13.81c0,.76-.17,7.55-.4,16.93Z"/></clipPath><clipPath id="clip-path-2" transform="translate(0 0)"><path class="cls-1" d="M13.88,44.15a9.89,9.89,0,0,0,10,9.18A9.9,9.9,0,0,0,34,44.15Z"/></clipPath><clipPath id="clip-path-3" transform="translate(0 0)"><path class="cls-1" d="M36.87,24.22h9.25v7.87A10.72,10.72,0,0,1,35.45,42.87h-.09V25.69a1.47,1.47,0,0,1,1.49-1.47Z"/></clipPath><clipPath id="clip-path-4" transform="translate(0 0)"><path class="cls-1" d="M46.12,16.12a10.08,10.08,0,0,0-20.08,0Z"/></clipPath><clipPath id="clip-path-5" transform="translate(0 0)"><path class="cls-1" d="M23.13,36H13.88V28.17A10.73,10.73,0,0,1,24.55,17.39h.05V34.58A1.46,1.46,0,0,1,23.13,36Z"/></clipPath></defs><rect class="cls-1" width="60" height="60"/><rect id="Rectangle_8345" data-name="Rectangle 8345" class="cls-2" width="60" height="60"/><rect id="Rectangle_8345-2" data-name="Rectangle 8345" class="cls-2" width="60" height="60"/><path class="cls-3" d="M46.12,24.22v9.17a10.72,10.72,0,0,1-10.7,10.76h-.06a10.78,10.78,0,0,1-21.48,0h19a2.44,2.44,0,0,0,2.46-2.55L36,24.93Z" transform="translate(0 0)"/><g class="cls-4"><polygon class="cls-5" points="23.39 36.05 46.12 22.92 46.12 36.05 23.39 36.05"/><polygon class="cls-5" points="23.07 36.05 46.12 22.74 46.12 22.92 23.39 36.05 23.07 36.05"/><polygon class="cls-6" points="22.76 36.05 46.12 22.55 46.12 22.74 23.07 36.05 22.76 36.05"/><polygon class="cls-7" points="22.43 36.05 46.12 22.37 46.12 22.55 22.76 36.05 22.43 36.05"/><polygon class="cls-8" points="22.11 36.05 46.12 22.18 46.12 22.37 22.43 36.05 22.11 36.05"/><polygon class="cls-9" points="21.79 36.05 46.12 21.99 46.12 22.18 22.11 36.05 21.79 36.05"/><polygon class="cls-10" points="21.47 36.05 46.12 21.81 46.12 21.99 21.79 36.05 21.47 36.05"/><polygon class="cls-11" points="21.14 36.05 46.12 21.62 46.12 21.81 21.47 36.05 21.14 36.05"/><polygon class="cls-12" points="20.82 36.05 46.12 21.44 46.12 21.62 21.14 36.05 20.82 36.05"/><polygon class="cls-13" points="20.5 36.05 46.12 21.25 46.12 21.44 20.82 36.05 20.5 36.05"/><polygon class="cls-14" points="20.18 36.05 46.12 21.07 46.12 21.25 20.5 36.05 20.18 36.05"/><polygon class="cls-15" points="19.85 36.05 46.12 20.88 46.12 21.07 20.18 36.05 19.85 36.05"/><polygon class="cls-16" points="19.53 36.05 46.12 20.69 46.12 20.88 19.85 36.05 19.53 36.05"/><polygon class="cls-17" points="19.21 36.05 46.12 20.51 46.12 20.69 19.53 36.05 19.21 36.05"/><polygon class="cls-18" points="18.9 36.05 46.12 20.32 46.12 20.51 19.21 36.05 18.9 36.05"/><polygon class="cls-19" points="18.56 36.05 46.12 20.14 46.12 20.32 18.9 36.05 18.56 36.05"/><polygon class="cls-20" points="18.25 36.05 46.12 19.95 46.12 20.14 18.56 36.05 18.25 36.05"/><polygon class="cls-21" points="17.93 36.05 46.12 19.77 46.12 19.95 18.25 36.05 17.93 36.05"/><polygon class="cls-22" points="17.61 36.05 46.12 19.58 46.12 19.77 17.93 36.05 17.61 36.05"/><polygon class="cls-23" points="17.28 36.05 46.12 19.39 46.12 19.58 17.61 36.05 17.28 36.05"/><polygon class="cls-24" points="16.96 36.05 46.12 19.21 46.12 19.39 17.28 36.05 16.96 36.05"/><polygon class="cls-25" points="16.64 36.05 46.12 19.02 46.12 19.21 16.96 36.05 16.64 36.05"/><polygon class="cls-26" points="16.32 36.05 46.12 18.84 46.12 19.02 16.64 36.05 16.32 36.05"/><polygon class="cls-27" points="15.99 36.05 46.12 18.65 46.12 18.84 16.32 36.05 15.99 36.05"/><polygon class="cls-28" points="15.67 36.05 46.12 18.47 46.12 18.65 15.99 36.05 15.67 36.05"/><polygon class="cls-29" points="15.35 36.05 46.12 18.28 46.12 18.47 15.67 36.05 15.35 36.05"/><polygon class="cls-30" points="15.04 36.05 46.12 18.09 46.12 18.28 15.35 36.05 15.04 36.05"/><polygon class="cls-31" points="14.7 36.05 46.12 17.91 46.12 18.09 15.04 36.05 14.7 36.05"/><polygon class="cls-32" points="14.38 36.05 46.12 17.72 46.12 17.91 14.7 36.05 14.38 36.05"/><polygon class="cls-33" points="14.07 36.05 46.12 17.54 46.12 17.72 14.38 36.05 14.07 36.05"/><polygon class="cls-34" points="13.88 35.97 46.12 17.35 46.12 17.54 14.07 36.05 13.88 36.05 13.88 35.97"/><polygon class="cls-35" points="13.88 35.79 46.12 17.16 46.12 17.35 13.88 35.97 13.88 35.79"/><polygon class="cls-36" points="13.88 35.6 46.12 16.98 46.12 17.16 13.88 35.79 13.88 35.6"/><polygon class="cls-37" points="13.88 35.42 46.12 16.79 46.12 16.98 13.88 35.6 13.88 35.42"/><polygon class="cls-38" points="13.88 35.23 46.12 16.61 46.12 16.79 13.88 35.42 13.88 35.23"/><polygon class="cls-39" points="13.88 35.05 46.12 16.42 46.12 16.61 13.88 35.23 13.88 35.05"/><polygon class="cls-40" points="13.88 34.86 46.12 16.24 46.12 16.42 13.88 35.05 13.88 34.86"/><polygon class="cls-41" points="13.88 34.67 46.12 16.05 46.12 16.24 13.88 34.86 13.88 34.67"/><polygon class="cls-42" points="13.88 34.49 46.12 15.86 46.12 16.05 13.88 34.67 13.88 34.49"/><polygon class="cls-43" points="13.88 34.3 46.12 15.68 46.12 15.86 13.88 34.49 13.88 34.3"/><polygon class="cls-44" points="13.88 34.12 46.12 15.49 46.12 15.68 13.88 34.3 13.88 34.12"/><polygon class="cls-45" points="13.88 33.93 46.12 15.31 46.12 15.49 13.88 34.12 13.88 33.93"/><polygon class="cls-46" points="13.88 33.75 46.12 15.12 46.12 15.31 13.88 33.93 13.88 33.75"/><polygon class="cls-47" points="13.88 33.56 46.12 14.95 46.12 15.12 13.88 33.75 13.88 33.56"/><polygon class="cls-48" points="13.88 33.37 46.12 14.75 46.12 14.95 13.88 33.56 13.88 33.37"/><polygon class="cls-49" points="13.88 33.19 46.12 14.57 46.12 14.75 13.88 33.37 13.88 33.19"/><polygon class="cls-50" points="13.88 33 46.12 14.38 46.12 14.57 13.88 33.19 13.88 33"/><polygon class="cls-51" points="13.88 32.82 46.12 14.19 46.12 14.38 13.88 33 13.88 32.82"/><polygon class="cls-52" points="13.88 32.63 46.12 14.01 46.12 14.19 13.88 32.82 13.88 32.63"/><polygon class="cls-53" points="13.88 32.45 46.12 13.82 46.12 14.01 13.88 32.63 13.88 32.45"/><polygon class="cls-54" points="13.88 32.26 46.12 13.64 46.12 13.82 13.88 32.45 13.88 32.26"/><polygon class="cls-55" points="13.88 32.07 46.12 13.45 46.12 13.64 13.88 32.26 13.88 32.07"/><polygon class="cls-56" points="13.88 31.89 46.12 13.26 46.12 13.45 13.88 32.07 13.88 31.89"/><polygon class="cls-57" points="13.88 31.7 46.12 13.08 46.12 13.26 13.88 31.89 13.88 31.7"/><polygon class="cls-58" points="13.88 31.52 46.12 12.89 46.12 13.08 13.88 31.7 13.88 31.52"/><polygon class="cls-59" points="13.88 31.33 46.12 12.71 46.12 12.89 13.88 31.52 13.88 31.33"/><polygon class="cls-60" points="13.88 31.15 46.12 12.52 46.12 12.71 13.88 31.33 13.88 31.15"/><polygon class="cls-61" points="13.88 30.96 46.12 12.35 46.12 12.52 13.88 31.15 13.88 30.96"/><polygon class="cls-62" points="13.88 30.77 46.12 12.15 46.12 12.35 13.88 30.96 13.88 30.77"/><polygon class="cls-63" points="13.88 30.59 46.12 11.96 46.12 12.15 13.88 30.77 13.88 30.59"/><polygon class="cls-64" points="13.88 30.4 46.12 11.79 46.12 11.96 13.88 30.59 13.88 30.4"/><polygon class="cls-65" points="13.88 30.22 46.12 11.59 46.12 11.79 13.88 30.4 13.88 30.22"/><polygon class="cls-66" points="13.88 30.03 46.12 11.41 46.12 11.59 13.88 30.22 13.88 30.03"/><polygon class="cls-67" points="13.88 29.84 46.12 11.22 46.12 11.41 13.88 30.03 13.88 29.84"/><polygon class="cls-68" points="13.88 29.66 46.12 11.03 46.12 11.22 13.88 29.84 13.88 29.66"/><polygon class="cls-69" points="13.88 29.47 46.12 10.86 46.12 11.03 13.88 29.66 13.88 29.47"/><polygon class="cls-70" points="13.88 29.29 46.12 10.66 46.12 10.86 13.88 29.47 13.88 29.29"/><polygon class="cls-71" points="13.88 29.1 46.12 10.48 46.12 10.66 13.88 29.29 13.88 29.1"/><polygon class="cls-72" points="13.88 28.92 46.12 10.29 46.12 10.48 13.88 29.1 13.88 28.92"/><polygon class="cls-73" points="13.88 28.73 46.12 10.12 46.12 10.29 13.88 28.92 13.88 28.73"/><polygon class="cls-74" points="13.88 28.54 46.12 9.92 46.12 10.12 13.88 28.73 13.88 28.54"/><polygon class="cls-75" points="13.88 28.36 46.11 9.75 46.12 9.77 46.12 9.92 13.88 28.54 13.88 28.36"/><polygon class="cls-76" points="13.88 28.17 46.03 9.61 46.11 9.75 13.88 28.36 13.88 28.17"/><polygon class="cls-77" points="13.88 27.99 45.95 9.47 46.03 9.61 13.88 28.17 13.88 27.99"/><polygon class="cls-78" points="13.88 27.8 45.87 9.33 45.95 9.47 13.88 27.99 13.88 27.8"/><polygon class="cls-79" points="13.88 27.62 45.79 9.2 45.87 9.33 13.88 27.8 13.88 27.62"/><polygon class="cls-80" points="13.88 27.43 45.7 9.06 45.79 9.2 13.88 27.62 13.88 27.43"/><polygon class="cls-81" points="13.88 27.24 45.63 8.92 45.7 9.06 13.88 27.43 13.88 27.24"/><polygon class="cls-82" points="13.88 27.06 45.55 8.78 45.63 8.92 13.88 27.24 13.88 27.06"/><polygon class="cls-83" points="13.88 26.87 45.46 8.64 45.55 8.78 13.88 27.06 13.88 26.87"/><polygon class="cls-84" points="13.88 26.69 45.38 8.5 45.46 8.64 13.88 26.87 13.88 26.69"/><polygon class="cls-85" points="13.88 26.5 45.31 8.36 45.38 8.5 13.88 26.69 13.88 26.5"/><polygon class="cls-86" points="13.88 26.31 45.22 8.22 45.31 8.36 13.88 26.5 13.88 26.31"/><polygon class="cls-87" points="13.88 26.13 45.14 8.08 45.22 8.22 13.88 26.31 13.88 26.13"/><polygon class="cls-88" points="13.88 25.94 45.07 7.94 45.14 8.08 13.88 26.13 13.88 25.94"/><polygon class="cls-89" points="13.88 25.76 44.98 7.8 45.07 7.94 13.88 25.94 13.88 25.76"/><polygon class="cls-90" points="13.88 25.57 44.9 7.66 44.98 7.8 13.88 25.76 13.88 25.57"/><polygon class="cls-91" points="13.88 25.39 44.83 7.52 44.9 7.66 13.88 25.57 13.88 25.39"/><polygon class="cls-92" points="13.88 25.2 44.74 7.38 44.83 7.52 13.88 25.39 13.88 25.2"/><polygon class="cls-93" points="13.88 25.01 44.66 7.24 44.74 7.38 13.88 25.2 13.88 25.01"/><polygon class="cls-94" points="13.88 24.83 44.58 7.1 44.66 7.24 13.88 25.01 13.88 24.83"/><polygon class="cls-95" points="13.88 24.64 44.51 6.97 44.58 7.1 13.88 24.83 13.88 24.64"/><polygon class="cls-96" points="13.88 24.46 44.42 6.83 44.51 6.97 13.88 24.64 13.88 24.46"/><polygon class="cls-97" points="13.88 24.27 44.34 6.69 44.42 6.83 13.88 24.46 13.88 24.27"/><polygon class="cls-98" points="13.88 24.09 44.26 6.55 44.34 6.69 13.88 24.27 13.88 24.09"/><polygon class="cls-99" points="13.88 23.9 44.17 6.41 44.26 6.55 13.88 24.09 13.88 23.9"/><polygon class="cls-100" points="13.88 23.71 44.1 6.27 44.17 6.41 13.88 23.9 13.88 23.71"/><polygon class="cls-101" points="13.88 23.53 44.02 6.13 44.1 6.27 13.88 23.71 13.88 23.53"/><polygon class="cls-102" points="13.88 23.34 43.93 5.99 44.02 6.13 13.88 23.53 13.88 23.34"/><polygon class="cls-103" points="13.88 23.16 43.73 5.92 43.9 5.92 43.93 5.99 13.88 23.34 13.88 23.16"/><polygon class="cls-104" points="13.88 22.97 43.41 5.92 43.73 5.92 13.88 23.16 13.88 22.97"/><polygon class="cls-105" points="13.88 22.79 43.09 5.92 43.41 5.92 13.88 22.97 13.88 22.79"/><polygon class="cls-106" points="13.88 22.6 42.76 5.92 43.09 5.92 13.88 22.79 13.88 22.6"/><polygon class="cls-107" points="13.88 22.42 42.44 5.92 42.76 5.92 13.88 22.6 13.88 22.42"/><polygon class="cls-108" points="13.88 22.23 42.12 5.92 42.44 5.92 13.88 22.42 13.88 22.23"/><polygon class="cls-109" points="13.88 22.04 41.79 5.92 42.12 5.92 13.88 22.23 13.88 22.04"/><polygon class="cls-110" points="13.88 21.86 41.47 5.92 41.79 5.92 13.88 22.04 13.88 21.86"/><polygon class="cls-111" points="13.88 21.67 41.16 5.92 41.47 5.92 13.88 21.86 13.88 21.67"/><polygon class="cls-112" points="13.88 21.49 40.84 5.92 41.16 5.92 13.88 21.67 13.88 21.49"/><polygon class="cls-113" points="13.88 21.3 40.52 5.92 40.84 5.92 13.88 21.49 13.88 21.3"/><polygon class="cls-114" points="13.88 21.12 40.19 5.92 40.52 5.92 13.88 21.3 13.88 21.12"/><polygon class="cls-115" points="13.88 20.93 39.87 5.92 40.19 5.92 13.88 21.12 13.88 20.93"/><polygon class="cls-116" points="13.88 20.74 39.55 5.92 39.87 5.92 13.88 20.93 13.88 20.74"/><polygon class="cls-117" points="13.88 20.56 39.23 5.92 39.55 5.92 13.88 20.74 13.88 20.56"/><polygon class="cls-118" points="13.88 20.37 38.9 5.92 39.23 5.92 13.88 20.56 13.88 20.37"/><polygon class="cls-119" points="13.88 20.19 38.58 5.92 38.9 5.92 13.88 20.37 13.88 20.19"/><polygon class="cls-120" points="13.88 20 38.26 5.92 38.58 5.92 13.88 20.19 13.88 20"/><polygon class="cls-121" points="13.88 19.81 37.94 5.92 38.26 5.92 13.88 20 13.88 19.81"/><polygon class="cls-122" points="13.88 19.63 37.61 5.92 37.94 5.92 13.88 19.81 13.88 19.63"/><polygon class="cls-123" points="13.88 19.44 37.3 5.92 37.61 5.92 13.88 19.63 13.88 19.44"/><polygon class="cls-124" points="13.88 19.26 36.98 5.92 37.3 5.92 13.88 19.44 13.88 19.26"/><polygon class="cls-125" points="13.88 19.07 36.66 5.92 36.98 5.92 13.88 19.26 13.88 19.07"/><polygon class="cls-126" points="13.88 18.89 36.33 5.92 36.66 5.92 13.88 19.07 13.88 18.89"/><polygon class="cls-127" points="13.88 18.7 36.01 5.92 36.33 5.92 13.88 18.89 13.88 18.7"/><polygon class="cls-128" points="13.88 18.51 35.69 5.92 36.01 5.92 13.88 18.7 13.88 18.51"/><polygon class="cls-129" points="13.88 18.33 35.37 5.92 35.69 5.92 13.88 18.51 13.88 18.33"/><polygon class="cls-130" points="13.88 18.14 35.04 5.92 35.37 5.92 13.88 18.33 13.88 18.14"/><polygon class="cls-131" points="13.88 17.96 34.72 5.92 35.04 5.92 13.88 18.14 13.88 17.96"/><polygon class="cls-132" points="13.88 17.77 34.4 5.92 34.72 5.92 13.88 17.96 13.88 17.77"/><polygon class="cls-133" points="13.88 17.58 34.08 5.92 34.4 5.92 13.88 17.77 13.88 17.58"/><polygon class="cls-134" points="13.88 17.4 33.75 5.92 34.08 5.92 13.88 17.58 13.88 17.4"/><polygon class="cls-135" points="13.88 17.21 33.43 5.92 33.75 5.92 13.88 17.4 13.88 17.21"/><polygon class="cls-136" points="13.88 17.03 33.12 5.92 33.43 5.92 13.88 17.21 13.88 17.03"/><polygon class="cls-137" points="13.88 16.84 32.8 5.92 33.12 5.92 13.88 17.03 13.88 16.84"/><polygon class="cls-138" points="13.88 16.66 32.47 5.92 32.8 5.92 13.88 16.84 13.88 16.66"/><polygon class="cls-138" points="32.47 5.92 13.88 16.66 13.88 5.92 32.47 5.92"/></g><g class="cls-139"><polygon class="cls-140" points="14.24 44.12 13.88 46.25 13.88 44.12 14.24 44.12"/><polygon class="cls-140" points="14.46 44.12 13.88 47.47 13.88 46.25 14.24 44.12 14.46 44.12"/><polygon class="cls-141" points="14.68 44.12 13.88 48.68 13.88 47.47 14.46 44.12 14.68 44.12"/><polygon class="cls-142" points="14.89 44.12 13.88 49.91 13.88 48.68 14.68 44.12 14.89 44.12"/><polygon class="cls-143" points="15.11 44.12 13.88 51.12 13.88 49.91 14.89 44.12 15.11 44.12"/><polygon class="cls-144" points="15.33 44.12 13.88 52.34 13.88 51.12 15.11 44.12 15.33 44.12"/><polygon class="cls-145" points="15.54 44.12 13.95 53.13 13.88 53.12 13.88 52.34 15.33 44.12 15.54 44.12"/><polygon class="cls-146" points="15.75 44.12 14.16 53.17 13.95 53.13 15.54 44.12 15.75 44.12"/><polygon class="cls-147" points="15.96 44.12 14.37 53.21 14.16 53.17 15.75 44.12 15.96 44.12"/><polygon class="cls-148" points="16.18 44.12 14.58 53.23 14.37 53.21 15.96 44.12 16.18 44.12"/><polygon class="cls-149" points="16.4 44.12 14.78 53.27 14.58 53.23 16.18 44.12 16.4 44.12"/><polygon class="cls-150" points="16.61 44.12 14.98 53.31 14.78 53.27 16.4 44.12 16.61 44.12"/><polygon class="cls-151" points="16.83 44.12 15.2 53.34 15.15 53.34 14.98 53.31 16.61 44.12 16.83 44.12"/><polygon class="cls-152" points="17.04 44.12 15.42 53.34 15.2 53.34 16.83 44.12 17.04 44.12"/><polygon class="cls-153" points="17.25 44.12 15.63 53.34 15.42 53.34 17.04 44.12 17.25 44.12"/><polygon class="cls-154" points="17.47 44.12 15.84 53.34 15.63 53.34 17.25 44.12 17.47 44.12"/><polygon class="cls-155" points="17.68 44.12 16.05 53.34 15.84 53.34 17.47 44.12 17.68 44.12"/><polygon class="cls-156" points="17.9 44.12 16.27 53.34 16.05 53.34 17.68 44.12 17.9 44.12"/><polygon class="cls-157" points="18.12 44.12 16.49 53.34 16.27 53.34 17.9 44.12 18.12 44.12"/><polygon class="cls-158" points="18.32 44.12 16.7 53.34 16.49 53.34 18.12 44.12 18.32 44.12"/><polygon class="cls-159" points="18.54 44.12 16.92 53.34 16.7 53.34 18.32 44.12 18.54 44.12"/><polygon class="cls-160" points="18.76 44.12 17.13 53.34 16.92 53.34 18.54 44.12 18.76 44.12"/><polygon class="cls-161" points="18.97 44.12 17.34 53.34 17.13 53.34 18.76 44.12 18.97 44.12"/><polygon class="cls-162" points="19.19 44.12 17.56 53.34 17.34 53.34 18.97 44.12 19.19 44.12"/><polygon class="cls-163" points="19.41 44.12 17.77 53.34 17.56 53.34 19.19 44.12 19.41 44.12"/><polygon class="cls-164" points="19.61 44.12 17.99 53.34 17.77 53.34 19.41 44.12 19.61 44.12"/><polygon class="cls-165" points="19.83 44.12 18.21 53.34 17.99 53.34 19.61 44.12 19.83 44.12"/><polygon class="cls-166" points="20.04 44.12 18.41 53.34 18.21 53.34 19.83 44.12 20.04 44.12"/><polygon class="cls-167" points="20.26 44.12 18.63 53.34 18.41 53.34 20.04 44.12 20.26 44.12"/><polygon class="cls-168" points="20.48 44.12 18.84 53.34 18.63 53.34 20.26 44.12 20.48 44.12"/><polygon class="cls-169" points="20.69 44.12 19.06 53.34 18.84 53.34 20.48 44.12 20.69 44.12"/><polygon class="cls-170" points="20.9 44.12 19.28 53.34 19.06 53.34 20.69 44.12 20.9 44.12"/><polygon class="cls-171" points="21.11 44.12 19.5 53.34 19.28 53.34 20.9 44.12 21.11 44.12"/><polygon class="cls-172" points="21.33 44.12 19.7 53.34 19.5 53.34 21.11 44.12 21.33 44.12"/><polygon class="cls-173" points="21.55 44.12 19.91 53.34 19.7 53.34 21.33 44.12 21.55 44.12"/><polygon class="cls-174" points="21.76 44.12 20.13 53.34 19.91 53.34 21.55 44.12 21.76 44.12"/><polygon class="cls-175" points="21.98 44.12 20.35 53.34 20.13 53.34 21.76 44.12 21.98 44.12"/><polygon class="cls-176" points="22.18 44.12 20.57 53.34 20.35 53.34 21.98 44.12 22.18 44.12"/><polygon class="cls-177" points="22.4 44.12 20.78 53.34 20.57 53.34 22.18 44.12 22.4 44.12"/><polygon class="cls-178" points="22.62 44.12 20.98 53.34 20.78 53.34 22.4 44.12 22.62 44.12"/><polygon class="cls-179" points="22.83 44.12 21.2 53.34 20.98 53.34 22.62 44.12 22.83 44.12"/><polygon class="cls-180" points="23.05 44.12 21.42 53.34 21.2 53.34 22.83 44.12 23.05 44.12"/><polygon class="cls-181" points="23.27 44.12 21.64 53.34 21.42 53.34 23.05 44.12 23.27 44.12"/><polygon class="cls-182" points="23.47 44.12 21.85 53.34 21.64 53.34 23.27 44.12 23.47 44.12"/><polygon class="cls-183" points="23.69 44.12 22.07 53.34 21.85 53.34 23.47 44.12 23.69 44.12"/><polygon class="cls-184" points="23.9 44.12 22.27 53.34 22.07 53.34 23.69 44.12 23.9 44.12"/><polygon class="cls-185" points="24.12 44.12 22.49 53.34 22.27 53.34 23.9 44.12 24.12 44.12"/><polygon class="cls-186" points="24.34 44.12 22.7 53.34 22.49 53.34 24.12 44.12 24.34 44.12"/><polygon class="cls-187" points="24.55 44.12 22.92 53.34 22.7 53.34 24.34 44.12 24.55 44.12"/><polygon class="cls-188" points="24.76 44.12 23.14 53.34 22.92 53.34 24.55 44.12 24.76 44.12"/><polygon class="cls-189" points="24.97 44.12 23.36 53.34 23.14 53.34 24.76 44.12 24.97 44.12"/><polygon class="cls-190" points="25.19 44.12 23.56 53.34 23.36 53.34 24.97 44.12 25.19 44.12"/><polygon class="cls-191" points="25.41 44.12 23.78 53.34 23.56 53.34 25.19 44.12 25.41 44.12"/><polygon class="cls-192" points="25.62 44.12 23.99 53.34 23.78 53.34 25.41 44.12 25.62 44.12"/><polygon class="cls-193" points="25.84 44.12 24.21 53.34 23.99 53.34 25.62 44.12 25.84 44.12"/><polygon class="cls-194" points="26.06 44.12 24.43 53.34 24.21 53.34 25.84 44.12 26.06 44.12"/><polygon class="cls-195" points="26.26 44.12 24.64 53.34 24.43 53.34 26.06 44.12 26.26 44.12"/><polygon class="cls-196" points="26.48 44.12 24.86 53.34 24.64 53.34 26.26 44.12 26.48 44.12"/><polygon class="cls-197" points="26.69 44.12 25.06 53.34 24.86 53.34 26.48 44.12 26.69 44.12"/><polygon class="cls-198" points="26.91 44.12 25.28 53.34 25.06 53.34 26.69 44.12 26.91 44.12"/><polygon class="cls-199" points="27.13 44.12 25.5 53.34 25.28 53.34 26.91 44.12 27.13 44.12"/><polygon class="cls-200" points="27.34 44.12 25.71 53.34 25.5 53.34 27.13 44.12 27.34 44.12"/><polygon class="cls-201" points="27.55 44.12 25.93 53.34 25.71 53.34 27.34 44.12 27.55 44.12"/><polygon class="cls-202" points="27.76 44.12 26.15 53.34 25.93 53.34 27.55 44.12 27.76 44.12"/><polygon class="cls-203" points="27.98 44.12 26.35 53.34 26.15 53.34 27.76 44.12 27.98 44.12"/><polygon class="cls-204" points="28.2 44.12 26.57 53.34 26.35 53.34 27.98 44.12 28.2 44.12"/><polygon class="cls-205" points="28.41 44.12 26.78 53.34 26.57 53.34 28.2 44.12 28.41 44.12"/><polygon class="cls-206" points="28.62 44.12 27 53.34 26.78 53.34 28.41 44.12 28.62 44.12"/><polygon class="cls-207" points="28.83 44.12 27.22 53.34 27 53.34 28.62 44.12 28.83 44.12"/><polygon class="cls-208" points="29.05 44.12 27.43 53.34 27.22 53.34 28.83 44.12 29.05 44.12"/><polygon class="cls-209" points="29.27 44.12 27.64 53.34 27.43 53.34 29.05 44.12 29.27 44.12"/><polygon class="cls-210" points="29.48 44.12 27.85 53.34 27.64 53.34 29.27 44.12 29.48 44.12"/><polygon class="cls-211" points="29.7 44.12 28.07 53.34 27.85 53.34 29.48 44.12 29.7 44.12"/><polygon class="cls-212" points="29.92 44.12 28.29 53.34 28.07 53.34 29.7 44.12 29.92 44.12"/><polygon class="cls-213" points="30.12 44.12 28.5 53.34 28.29 53.34 29.92 44.12 30.12 44.12"/><polygon class="cls-214" points="30.34 44.12 28.72 53.34 28.5 53.34 30.12 44.12 30.34 44.12"/><polygon class="cls-215" points="30.55 44.12 28.92 53.34 28.72 53.34 30.34 44.12 30.55 44.12"/><polygon class="cls-216" points="30.77 44.12 29.14 53.34 28.92 53.34 30.55 44.12 30.77 44.12"/><polygon class="cls-217" points="30.99 44.12 29.36 53.34 29.14 53.34 30.77 44.12 30.99 44.12"/><polygon class="cls-218" points="31.19 44.12 29.57 53.34 29.36 53.34 30.99 44.12 31.19 44.12"/><polygon class="cls-219" points="31.41 44.12 29.79 53.34 29.57 53.34 31.19 44.12 31.41 44.12"/><polygon class="cls-220" points="31.63 44.12 30.01 53.34 29.79 53.34 31.41 44.12 31.63 44.12"/><polygon class="cls-3" points="31.84 44.12 30.21 53.34 30.01 53.34 31.63 44.12 31.84 44.12"/><polygon class="cls-3" points="30.21 53.34 31.84 44.12 33.96 44.12 33.96 53.34 30.21 53.34"/></g><g class="cls-221"><polygon class="cls-222" points="35.4 28.67 40.56 42.82 35.4 42.82 35.4 28.67"/><polygon class="cls-222" points="35.4 28.27 40.7 42.82 40.56 42.82 35.4 28.67 35.4 28.27"/><polygon class="cls-223" points="35.4 27.88 40.84 42.82 40.7 42.82 35.4 28.27 35.4 27.88"/><polygon class="cls-224" points="35.4 27.5 40.98 42.82 40.84 42.82 35.4 27.88 35.4 27.5"/><polygon class="cls-225" points="35.4 27.1 41.12 42.82 40.98 42.82 35.4 27.5 35.4 27.1"/><polygon class="cls-226" points="35.4 26.72 41.27 42.82 41.12 42.82 35.4 27.1 35.4 26.72"/><polygon class="cls-227" points="35.4 26.32 41.41 42.82 41.27 42.82 35.4 26.72 35.4 26.32"/><polygon class="cls-228" points="35.4 25.93 41.55 42.82 41.41 42.82 35.4 26.32 35.4 25.93"/><polygon class="cls-229" points="35.4 25.53 41.69 42.82 41.55 42.82 35.4 25.93 35.4 25.53"/><polygon class="cls-230" points="35.4 25.15 41.83 42.82 41.69 42.82 35.4 25.53 35.4 25.15"/><polygon class="cls-231" points="35.4 24.76 41.97 42.82 41.83 42.82 35.4 25.15 35.4 24.76"/><polygon class="cls-232" points="35.4 24.37 42.11 42.82 41.97 42.82 35.4 24.76 35.4 24.37"/><polygon class="cls-233" points="35.48 24.22 42.26 42.82 42.11 42.82 35.4 24.37 35.4 24.22 35.48 24.22"/><polygon class="cls-234" points="35.63 24.22 42.4 42.82 42.26 42.82 35.48 24.22 35.63 24.22"/><polygon class="cls-235" points="35.78 24.22 42.54 42.82 42.4 42.82 35.63 24.22 35.78 24.22"/><polygon class="cls-236" points="35.92 24.22 42.68 42.82 42.54 42.82 35.78 24.22 35.92 24.22"/><polygon class="cls-237" points="36.06 24.22 42.82 42.82 42.68 42.82 35.92 24.22 36.06 24.22"/><polygon class="cls-238" points="36.2 24.22 42.98 42.82 42.82 42.82 36.06 24.22 36.2 24.22"/><polygon class="cls-239" points="36.34 24.22 43.1 42.8 43.04 42.82 42.98 42.82 36.2 24.22 36.34 24.22"/><polygon class="cls-240" points="36.48 24.22 43.23 42.76 43.1 42.8 36.34 24.22 36.48 24.22"/><polygon class="cls-241" points="36.63 24.22 43.36 42.71 43.23 42.76 36.48 24.22 36.63 24.22"/><polygon class="cls-242" points="36.77 24.22 43.49 42.67 43.36 42.71 36.63 24.22 36.77 24.22"/><polygon class="cls-243" points="36.91 24.22 43.61 42.62 43.49 42.67 36.77 24.22 36.91 24.22"/><polygon class="cls-244" points="37.05 24.22 43.73 42.57 43.61 42.62 36.91 24.22 37.05 24.22"/><polygon class="cls-245" points="37.19 24.22 43.86 42.53 43.73 42.57 37.05 24.22 37.19 24.22"/><polygon class="cls-246" points="37.33 24.22 43.98 42.48 43.86 42.53 37.19 24.22 37.33 24.22"/><polygon class="cls-247" points="37.47 24.22 44.11 42.44 43.98 42.48 37.33 24.22 37.47 24.22"/><polygon class="cls-248" points="37.63 24.22 44.24 42.39 44.11 42.44 37.47 24.22 37.63 24.22"/><polygon class="cls-249" points="37.77 24.22 44.37 42.34 44.24 42.39 37.63 24.22 37.77 24.22"/><polygon class="cls-250" points="37.91 24.22 44.48 42.3 44.37 42.34 37.77 24.22 37.91 24.22"/><polygon class="cls-251" points="38.05 24.22 44.61 42.25 44.48 42.3 37.91 24.22 38.05 24.22"/><polygon class="cls-252" points="38.19 24.22 44.74 42.21 44.61 42.25 38.05 24.22 38.19 24.22"/><polygon class="cls-253" points="38.34 24.22 44.86 42.16 44.74 42.21 38.19 24.22 38.34 24.22"/><polygon class="cls-254" points="38.48 24.22 44.99 42.11 44.86 42.16 38.34 24.22 38.48 24.22"/><polygon class="cls-255" points="38.62 24.22 45.12 42.07 44.99 42.11 38.48 24.22 38.62 24.22"/><polygon class="cls-256" points="38.76 24.22 45.24 42.02 45.12 42.07 38.62 24.22 38.76 24.22"/><polygon class="cls-257" points="38.9 24.22 45.37 41.98 45.24 42.02 38.76 24.22 38.9 24.22"/><polygon class="cls-258" points="39.04 24.22 45.49 41.93 45.37 41.98 38.9 24.22 39.04 24.22"/><polygon class="cls-259" points="39.18 24.22 45.62 41.89 45.49 41.93 39.04 24.22 39.18 24.22"/><polygon class="cls-260" points="39.33 24.22 45.74 41.84 45.62 41.89 39.18 24.22 39.33 24.22"/><polygon class="cls-261" points="39.47 24.22 45.87 41.79 45.74 41.84 39.33 24.22 39.47 24.22"/><polygon class="cls-262" points="39.61 24.22 46 41.75 45.87 41.79 39.47 24.22 39.61 24.22"/><polygon class="cls-263" points="39.75 24.22 46.12 41.7 46 41.75 39.61 24.22 39.75 24.22"/><polygon class="cls-264" points="39.89 24.22 46.12 41.33 46.12 41.7 46.12 41.7 39.75 24.22 39.89 24.22"/><polygon class="cls-265" points="40.05 24.22 46.12 40.94 46.12 41.33 39.89 24.22 40.05 24.22"/><polygon class="cls-266" points="40.19 24.22 46.12 40.54 46.12 40.94 40.05 24.22 40.19 24.22"/><polygon class="cls-267" points="40.33 24.22 46.12 40.16 46.12 40.54 40.19 24.22 40.33 24.22"/><polygon class="cls-268" points="40.47 24.22 46.12 39.77 46.12 40.16 40.33 24.22 40.47 24.22"/><polygon class="cls-269" points="40.61 24.22 46.12 39.37 46.12 39.77 40.47 24.22 40.61 24.22"/><polygon class="cls-270" points="40.75 24.22 46.12 38.99 46.12 39.37 40.61 24.22 40.75 24.22"/><polygon class="cls-271" points="40.89 24.22 46.12 38.59 46.12 38.99 40.75 24.22 40.89 24.22"/><polygon class="cls-272" points="41.04 24.22 46.12 38.2 46.12 38.59 40.89 24.22 41.04 24.22"/><polygon class="cls-273" points="41.18 24.22 46.12 37.82 46.12 38.2 41.04 24.22 41.18 24.22"/><polygon class="cls-274" points="41.32 24.22 46.12 37.42 46.12 37.82 41.18 24.22 41.32 24.22"/><polygon class="cls-275" points="41.46 24.22 46.12 37.03 46.12 37.42 41.32 24.22 41.46 24.22"/><polygon class="cls-276" points="41.6 24.22 46.12 36.64 46.12 37.03 41.46 24.22 41.6 24.22"/><polygon class="cls-277" points="41.75 24.22 46.12 36.25 46.12 36.64 41.6 24.22 41.75 24.22"/><polygon class="cls-278" points="41.89 24.22 46.12 35.85 46.12 36.25 41.75 24.22 41.89 24.22"/><polygon class="cls-279" points="42.03 24.22 46.12 35.47 46.12 35.85 41.89 24.22 42.03 24.22"/><polygon class="cls-280" points="42.17 24.22 46.12 35.08 46.12 35.47 42.03 24.22 42.17 24.22"/><polygon class="cls-281" points="42.31 24.22 46.12 34.68 46.12 35.08 42.17 24.22 42.31 24.22"/><polygon class="cls-282" points="42.45 24.22 46.12 34.3 46.12 34.68 42.31 24.22 42.45 24.22"/><polygon class="cls-283" points="42.59 24.22 46.12 33.9 46.12 34.3 42.45 24.22 42.59 24.22"/><polygon class="cls-284" points="42.75 24.22 46.12 33.51 46.12 33.9 42.59 24.22 42.75 24.22"/><polygon class="cls-285" points="42.89 24.22 46.12 33.13 46.12 33.51 42.75 24.22 42.89 24.22"/><polygon class="cls-286" points="43.03 24.22 46.12 32.73 46.12 33.13 42.89 24.22 43.03 24.22"/><polygon class="cls-287" points="43.17 24.22 46.12 32.34 46.12 32.73 43.03 24.22 43.17 24.22"/><polygon class="cls-288" points="43.31 24.22 46.12 31.95 46.12 32.34 43.17 24.22 43.31 24.22"/><polygon class="cls-289" points="43.46 24.22 46.12 31.56 46.12 31.95 43.31 24.22 43.46 24.22"/><polygon class="cls-290" points="43.6 24.22 46.12 31.16 46.12 31.56 43.46 24.22 43.6 24.22"/><polygon class="cls-291" points="43.74 24.22 46.12 30.77 46.12 31.16 43.6 24.22 43.74 24.22"/><polygon class="cls-292" points="43.88 24.22 46.12 30.39 46.12 30.77 43.74 24.22 43.88 24.22"/><polygon class="cls-293" points="44.02 24.22 46.12 29.99 46.12 30.39 43.88 24.22 44.02 24.22"/><polygon class="cls-294" points="44.16 24.22 46.12 29.61 46.12 29.99 44.02 24.22 44.16 24.22"/><polygon class="cls-295" points="44.3 24.22 46.12 29.21 46.12 29.61 44.16 24.22 44.3 24.22"/><polygon class="cls-296" points="44.45 24.22 46.12 28.82 46.12 29.21 44.3 24.22 44.45 24.22"/><polygon class="cls-297" points="44.59 24.22 46.12 28.43 46.12 28.82 44.45 24.22 44.59 24.22"/><polygon class="cls-298" points="44.74 24.22 46.12 28.04 46.12 28.43 44.59 24.22 44.74 24.22"/><polygon class="cls-299" points="44.88 24.22 46.12 27.65 46.12 28.04 44.74 24.22 44.88 24.22"/><polygon class="cls-300" points="45.02 24.22 46.12 27.27 46.12 27.65 44.88 24.22 45.02 24.22"/><polygon class="cls-301" points="45.16 24.22 46.12 26.87 46.12 27.27 45.02 24.22 45.16 24.22"/><polygon class="cls-302" points="45.31 24.22 46.12 26.48 46.12 26.87 45.16 24.22 45.31 24.22"/><polygon class="cls-303" points="45.45 24.22 46.12 26.08 46.12 26.48 45.31 24.22 45.45 24.22"/><polygon class="cls-304" points="45.59 24.22 46.12 25.7 46.12 26.08 45.45 24.22 45.59 24.22"/><polygon class="cls-305" points="45.73 24.22 46.12 25.3 46.12 25.7 45.59 24.22 45.73 24.22"/><polygon class="cls-306" points="45.87 24.22 46.12 24.91 46.12 25.3 45.73 24.22 45.87 24.22"/><polygon class="cls-307" points="46.01 24.22 46.12 24.53 46.12 24.91 45.87 24.22 46.01 24.22"/><polygon class="cls-308" points="46.12 24.53 46.01 24.22 46.12 24.22 46.12 24.53"/></g><g class="cls-309"><polygon class="cls-11" points="46.12 6.93 46.12 6.93 46.12 6.93 46.12 6.93"/><polygon class="cls-12" points="46.12 7.57 45.96 6.93 46.12 6.93 46.12 6.93 46.12 7.57"/><polygon class="cls-310" points="46.12 8.22 45.81 6.93 45.96 6.93 46.12 7.57 46.12 8.22"/><polygon class="cls-14" points="46.12 8.85 45.64 6.93 45.81 6.93 46.12 8.22 46.12 8.85"/><polygon class="cls-311" points="46.12 9.5 45.49 6.93 45.64 6.93 46.12 8.85 46.12 9.5"/><polygon class="cls-15" points="46.12 10.14 45.32 6.93 45.49 6.93 46.12 9.5 46.12 10.14"/><polygon class="cls-312" points="46.12 10.79 45.17 6.93 45.32 6.93 46.12 10.14 46.12 10.79"/><polygon class="cls-17" points="46.12 11.43 45 6.93 45.17 6.93 46.12 10.79 46.12 11.43"/><polygon class="cls-313" points="46.12 12.08 44.85 6.93 45 6.93 46.12 11.43 46.12 12.08"/><polygon class="cls-19" points="46.12 12.71 44.69 6.93 44.85 6.93 46.12 12.08 46.12 12.71"/><polygon class="cls-20" points="46.12 13.37 44.53 6.93 44.69 6.93 46.12 12.71 46.12 13.37"/><polygon class="cls-21" points="46.12 14 44.37 6.93 44.53 6.93 46.12 13.37 46.12 14"/><polygon class="cls-22" points="46.12 14.65 44.2 6.93 44.37 6.93 46.12 14 46.12 14.65"/><polygon class="cls-23" points="46.12 15.29 44.05 6.93 44.2 6.93 46.12 14.65 46.12 15.29"/><polygon class="cls-24" points="46.12 15.94 43.88 6.93 44.05 6.93 46.12 15.29 46.12 15.94"/><polygon class="cls-25" points="46.02 16.16 43.73 6.93 43.88 6.93 46.12 15.94 46.12 16.16 46.02 16.16"/><polygon class="cls-26" points="45.86 16.16 43.56 6.93 43.73 6.93 46.02 16.16 45.86 16.16"/><polygon class="cls-27" points="45.7 16.16 43.41 6.93 43.56 6.93 45.86 16.16 45.7 16.16"/><polygon class="cls-28" points="45.54 16.16 43.24 6.93 43.41 6.93 45.7 16.16 45.54 16.16"/><polygon class="cls-29" points="45.37 16.16 43.08 6.93 43.24 6.93 45.54 16.16 45.37 16.16"/><polygon class="cls-30" points="45.22 16.16 42.93 6.93 43.08 6.93 45.37 16.16 45.22 16.16"/><polygon class="cls-31" points="45.05 16.16 42.76 6.93 42.93 6.93 45.22 16.16 45.05 16.16"/><polygon class="cls-32" points="44.9 16.16 42.61 6.93 42.76 6.93 45.05 16.16 44.9 16.16"/><polygon class="cls-33" points="44.74 16.16 42.44 6.93 42.61 6.93 44.9 16.16 44.74 16.16"/><polygon class="cls-314" points="44.58 16.16 42.29 6.93 42.44 6.93 44.74 16.16 44.58 16.16"/><polygon class="cls-35" points="44.42 16.16 42.12 6.93 42.29 6.93 44.58 16.16 44.42 16.16"/><polygon class="cls-36" points="44.26 16.16 41.96 6.93 42.12 6.93 44.42 16.16 44.26 16.16"/><polygon class="cls-37" points="44.1 16.16 41.8 6.93 41.96 6.93 44.26 16.16 44.1 16.16"/><polygon class="cls-38" points="43.93 16.16 41.64 6.93 41.8 6.93 44.1 16.16 43.93 16.16"/><polygon class="cls-315" points="43.78 16.16 41.49 6.93 41.64 6.93 43.93 16.16 43.78 16.16"/><polygon class="cls-40" points="43.61 16.16 41.32 6.93 41.49 6.93 43.78 16.16 43.61 16.16"/><polygon class="cls-41" points="43.46 16.16 41.17 6.93 41.32 6.93 43.61 16.16 43.46 16.16"/><polygon class="cls-42" points="43.3 16.16 41 6.93 41.17 6.93 43.46 16.16 43.3 16.16"/><polygon class="cls-43" points="43.14 16.16 40.85 6.93 41 6.93 43.3 16.16 43.14 16.16"/><polygon class="cls-316" points="42.98 16.16 40.68 6.93 40.85 6.93 43.14 16.16 42.98 16.16"/><polygon class="cls-45" points="42.82 16.16 40.52 6.93 40.68 6.93 42.98 16.16 42.82 16.16"/><polygon class="cls-46" points="42.66 16.16 40.37 6.93 40.52 6.93 42.82 16.16 42.66 16.16"/><polygon class="cls-47" points="42.49 16.16 40.2 6.93 40.37 6.93 42.66 16.16 42.49 16.16"/><polygon class="cls-48" points="42.34 16.16 40.05 6.93 40.2 6.93 42.49 16.16 42.34 16.16"/><polygon class="cls-49" points="42.17 16.16 39.88 6.93 40.05 6.93 42.34 16.16 42.17 16.16"/><polygon class="cls-317" points="42.02 16.16 39.73 6.93 39.88 6.93 42.17 16.16 42.02 16.16"/><polygon class="cls-318" points="41.86 16.16 39.56 6.93 39.73 6.93 42.02 16.16 41.86 16.16"/><polygon class="cls-52" points="41.7 16.16 39.41 6.93 39.56 6.93 41.86 16.16 41.7 16.16"/><polygon class="cls-319" points="41.54 16.16 39.24 6.93 39.41 6.93 41.7 16.16 41.54 16.16"/><polygon class="cls-55" points="41.38 16.16 39.08 6.93 39.24 6.93 41.54 16.16 41.38 16.16"/><polygon class="cls-56" points="41.22 16.16 38.92 6.93 39.08 6.93 41.38 16.16 41.22 16.16"/><polygon class="cls-57" points="41.05 16.16 38.76 6.93 38.92 6.93 41.22 16.16 41.05 16.16"/><polygon class="cls-58" points="40.9 16.16 38.61 6.93 38.76 6.93 41.05 16.16 40.9 16.16"/><polygon class="cls-59" points="40.73 16.16 38.44 6.93 38.61 6.93 40.9 16.16 40.73 16.16"/><polygon class="cls-60" points="40.58 16.16 38.29 6.93 38.44 6.93 40.73 16.16 40.58 16.16"/><polygon class="cls-61" points="40.42 16.16 38.12 6.93 38.29 6.93 40.58 16.16 40.42 16.16"/><polygon class="cls-62" points="40.26 16.16 37.97 6.93 38.12 6.93 40.42 16.16 40.26 16.16"/><polygon class="cls-63" points="40.1 16.16 37.8 6.93 37.97 6.93 40.26 16.16 40.1 16.16"/><polygon class="cls-64" points="39.93 16.16 37.64 6.93 37.8 6.93 40.1 16.16 39.93 16.16"/><polygon class="cls-65" points="39.78 16.16 37.49 6.93 37.64 6.93 39.93 16.16 39.78 16.16"/><polygon class="cls-320" points="39.61 16.16 37.32 6.93 37.49 6.93 39.78 16.16 39.61 16.16"/><polygon class="cls-67" points="39.46 16.16 37.17 6.93 37.32 6.93 39.61 16.16 39.46 16.16"/><polygon class="cls-321" points="39.3 16.16 37 6.93 37.17 6.93 39.46 16.16 39.3 16.16"/><polygon class="cls-69" points="39.14 16.16 36.85 6.93 37 6.93 39.3 16.16 39.14 16.16"/><polygon class="cls-322" points="38.98 16.16 36.68 6.93 36.85 6.93 39.14 16.16 38.98 16.16"/><polygon class="cls-323" points="38.81 16.16 36.52 6.93 36.68 6.93 38.98 16.16 38.81 16.16"/><polygon class="cls-324" points="38.66 16.16 36.36 6.93 36.52 6.93 38.81 16.16 38.66 16.16"/><polygon class="cls-72" points="38.49 16.16 36.2 6.93 36.36 6.93 38.66 16.16 38.49 16.16"/><polygon class="cls-73" points="38.34 16.16 36.05 6.93 36.2 6.93 38.49 16.16 38.34 16.16"/><polygon class="cls-74" points="38.17 16.16 35.88 6.93 36.05 6.93 38.34 16.16 38.17 16.16"/><polygon class="cls-325" points="38.02 16.16 35.73 6.93 35.88 6.93 38.17 16.16 38.02 16.16"/><polygon class="cls-326" points="37.85 16.16 35.56 6.93 35.73 6.93 38.02 16.16 37.85 16.16"/><polygon class="cls-77" points="37.7 16.16 35.41 6.93 35.56 6.93 37.85 16.16 37.7 16.16"/><polygon class="cls-78" points="37.54 16.16 35.24 6.93 35.41 6.93 37.7 16.16 37.54 16.16"/><polygon class="cls-79" points="37.38 16.16 35.08 6.93 35.24 6.93 37.54 16.16 37.38 16.16"/><polygon class="cls-80" points="37.22 16.16 34.92 6.93 35.08 6.93 37.38 16.16 37.22 16.16"/><polygon class="cls-327" points="37.05 16.16 34.76 6.93 34.92 6.93 37.22 16.16 37.05 16.16"/><polygon class="cls-328" points="36.9 16.16 34.61 6.93 34.76 6.93 37.05 16.16 36.9 16.16"/><polygon class="cls-83" points="36.73 16.16 34.44 6.93 34.61 6.93 36.9 16.16 36.73 16.16"/><polygon class="cls-84" points="36.58 16.16 34.29 6.93 34.44 6.93 36.73 16.16 36.58 16.16"/><polygon class="cls-85" points="36.41 16.16 34.12 6.93 34.29 6.93 36.58 16.16 36.41 16.16"/><polygon class="cls-329" points="36.26 16.16 33.97 6.93 34.12 6.93 36.41 16.16 36.26 16.16"/><polygon class="cls-330" points="36.1 16.16 33.8 6.93 33.97 6.93 36.26 16.16 36.1 16.16"/><polygon class="cls-88" points="35.93 16.16 33.64 6.93 33.8 6.93 36.1 16.16 35.93 16.16"/><polygon class="cls-89" points="35.78 16.16 33.48 6.93 33.64 6.93 35.93 16.16 35.78 16.16"/><polygon class="cls-90" points="35.61 16.16 33.32 6.93 33.48 6.93 35.78 16.16 35.61 16.16"/><polygon class="cls-331" points="35.46 16.16 33.17 6.93 33.32 6.93 35.61 16.16 35.46 16.16"/><polygon class="cls-332" points="35.29 16.16 33 6.93 33.17 6.93 35.46 16.16 35.29 16.16"/><polygon class="cls-93" points="35.14 16.16 32.85 6.93 33 6.93 35.29 16.16 35.14 16.16"/><polygon class="cls-95" points="34.98 16.16 32.68 6.93 32.85 6.93 35.14 16.16 34.98 16.16"/><polygon class="cls-96" points="34.81 16.16 32.52 6.93 32.68 6.93 34.98 16.16 34.81 16.16"/><polygon class="cls-333" points="34.66 16.16 32.36 6.93 32.52 6.93 34.81 16.16 34.66 16.16"/><polygon class="cls-334" points="34.49 16.16 32.2 6.93 32.36 6.93 34.66 16.16 34.49 16.16"/><polygon class="cls-99" points="34.34 16.16 32.05 6.93 32.2 6.93 34.49 16.16 34.34 16.16"/><polygon class="cls-100" points="34.17 16.16 31.88 6.93 32.05 6.93 34.34 16.16 34.17 16.16"/><polygon class="cls-101" points="34.02 16.16 31.73 6.93 31.88 6.93 34.17 16.16 34.02 16.16"/><polygon class="cls-335" points="33.85 16.16 31.56 6.93 31.73 6.93 34.02 16.16 33.85 16.16"/><polygon class="cls-336" points="33.7 16.16 31.39 6.93 31.56 6.93 33.85 16.16 33.7 16.16"/><polygon class="cls-104" points="33.54 16.16 31.24 6.93 31.39 6.93 33.7 16.16 33.54 16.16"/><polygon class="cls-105" points="33.38 16.16 31.08 6.93 31.24 6.93 33.54 16.16 33.38 16.16"/><polygon class="cls-106" points="33.22 16.16 30.92 6.93 31.08 6.93 33.38 16.16 33.22 16.16"/><polygon class="cls-337" points="33.05 16.16 30.76 6.93 30.92 6.93 33.22 16.16 33.05 16.16"/><polygon class="cls-338" points="32.9 16.16 30.61 6.93 30.76 6.93 33.05 16.16 32.9 16.16"/><polygon class="cls-109" points="32.73 16.16 30.44 6.93 30.61 6.93 32.9 16.16 32.73 16.16"/><polygon class="cls-109" points="26.04 7.48 28.26 6.93 30.44 6.93 32.73 16.16 26.04 16.16 26.04 7.48"/></g><g class="cls-339"><polygon class="cls-5" points="23.66 36.05 24.6 35.26 24.6 36.05 23.66 36.05"/><polygon class="cls-5" points="23.48 36.05 24.6 35.1 24.6 35.26 23.66 36.05 23.48 36.05"/><polygon class="cls-6" points="23.29 36.05 24.6 34.95 24.6 35.1 23.48 36.05 23.29 36.05"/><polygon class="cls-7" points="23.1 36.05 24.6 34.78 24.6 34.95 23.29 36.05 23.1 36.05"/><polygon class="cls-8" points="22.91 36.05 24.6 34.63 24.6 34.78 23.1 36.05 22.91 36.05"/><polygon class="cls-9" points="22.72 36.05 24.6 34.48 24.6 34.63 22.91 36.05 22.72 36.05"/><polygon class="cls-10" points="22.54 36.05 24.6 34.31 24.6 34.48 22.72 36.05 22.54 36.05"/><polygon class="cls-11" points="22.35 36.05 24.6 34.16 24.6 34.31 22.54 36.05 22.35 36.05"/><polygon class="cls-12" points="22.16 36.05 24.6 33.99 24.6 34.16 22.35 36.05 22.16 36.05"/><polygon class="cls-13" points="21.97 36.05 24.6 33.84 24.6 33.99 22.16 36.05 21.97 36.05"/><polygon class="cls-14" points="21.79 36.05 24.6 33.69 24.6 33.84 21.97 36.05 21.79 36.05"/><polygon class="cls-15" points="21.6 36.05 24.6 33.52 24.6 33.69 21.79 36.05 21.6 36.05"/><polygon class="cls-16" points="21.41 36.05 24.6 33.37 24.6 33.52 21.6 36.05 21.41 36.05"/><polygon class="cls-17" points="21.21 36.05 24.6 33.2 24.6 33.37 21.41 36.05 21.21 36.05"/><polygon class="cls-18" points="21.04 36.05 24.6 33.05 24.6 33.2 21.21 36.05 21.04 36.05"/><polygon class="cls-19" points="20.84 36.05 24.6 32.9 24.6 33.05 21.04 36.05 20.84 36.05"/><polygon class="cls-20" points="20.65 36.05 24.6 32.73 24.6 32.9 20.84 36.05 20.65 36.05"/><polygon class="cls-21" points="20.46 36.05 24.6 32.58 24.6 32.73 20.65 36.05 20.46 36.05"/><polygon class="cls-22" points="20.27 36.05 24.6 32.43 24.6 32.58 20.46 36.05 20.27 36.05"/><polygon class="cls-23" points="20.09 36.05 24.6 32.26 24.6 32.43 20.27 36.05 20.09 36.05"/><polygon class="cls-24" points="19.9 36.05 24.6 32.11 24.6 32.26 20.09 36.05 19.9 36.05"/><polygon class="cls-25" points="19.71 36.05 24.6 31.94 24.6 32.11 19.9 36.05 19.71 36.05"/><polygon class="cls-26" points="19.52 36.05 24.6 31.79 24.6 31.94 19.71 36.05 19.52 36.05"/><polygon class="cls-27" points="19.34 36.05 24.6 31.64 24.6 31.79 19.52 36.05 19.34 36.05"/><polygon class="cls-28" points="19.15 36.05 24.6 31.47 24.6 31.64 19.34 36.05 19.15 36.05"/><polygon class="cls-29" points="18.96 36.05 24.6 31.32 24.6 31.47 19.15 36.05 18.96 36.05"/><polygon class="cls-30" points="18.77 36.05 24.6 31.15 24.6 31.32 18.96 36.05 18.77 36.05"/><polygon class="cls-31" points="18.59 36.05 24.6 31 24.6 31.15 18.77 36.05 18.59 36.05"/><polygon class="cls-32" points="18.4 36.05 24.6 30.83 24.6 31 18.59 36.05 18.4 36.05"/><polygon class="cls-33" points="18.21 36.05 24.6 30.68 24.6 30.83 18.4 36.05 18.21 36.05"/><polygon class="cls-34" points="18.02 36.05 24.6 30.53 24.6 30.68 18.21 36.05 18.02 36.05"/><polygon class="cls-35" points="17.82 36.05 24.6 30.36 24.6 30.53 18.02 36.05 17.82 36.05"/><polygon class="cls-36" points="17.65 36.05 24.6 30.21 24.6 30.36 17.82 36.05 17.65 36.05"/><polygon class="cls-37" points="17.46 36.05 24.6 30.06 24.6 30.21 17.65 36.05 17.46 36.05"/><polygon class="cls-38" points="17.27 36.05 24.6 29.89 24.6 30.06 17.46 36.05 17.27 36.05"/><polygon class="cls-39" points="17.07 36.05 24.6 29.74 24.6 29.89 17.27 36.05 17.07 36.05"/><polygon class="cls-40" points="16.89 36.05 24.6 29.57 24.6 29.74 17.07 36.05 16.89 36.05"/><polygon class="cls-41" points="16.7 36.05 24.6 29.42 24.6 29.57 16.89 36.05 16.7 36.05"/><polygon class="cls-42" points="16.51 36.05 24.6 29.27 24.6 29.42 16.7 36.05 16.51 36.05"/><polygon class="cls-43" points="16.32 36.05 24.6 29.1 24.6 29.27 16.51 36.05 16.32 36.05"/><polygon class="cls-44" points="16.14 36.05 24.6 28.95 24.6 29.1 16.32 36.05 16.14 36.05"/><polygon class="cls-45" points="15.95 36.05 24.6 28.78 24.6 28.95 16.14 36.05 15.95 36.05"/><polygon class="cls-46" points="15.76 36.05 24.6 28.63 24.6 28.78 15.95 36.05 15.76 36.05"/><polygon class="cls-47" points="15.57 36.05 24.6 28.48 24.6 28.63 15.76 36.05 15.57 36.05"/><polygon class="cls-48" points="15.38 36.05 24.6 28.31 24.6 28.48 15.57 36.05 15.38 36.05"/><polygon class="cls-49" points="15.2 36.05 24.6 28.16 24.6 28.31 15.38 36.05 15.2 36.05"/><polygon class="cls-50" points="15.01 36.05 24.6 27.99 24.6 28.16 15.2 36.05 15.01 36.05"/><polygon class="cls-318" points="14.82 36.05 24.6 27.84 24.6 27.99 15.01 36.05 14.82 36.05"/><polygon class="cls-52" points="14.63 36.05 24.6 27.69 24.6 27.84 14.82 36.05 14.63 36.05"/><polygon class="cls-319" points="14.45 36.05 24.6 27.52 24.6 27.69 14.63 36.05 14.45 36.05"/><polygon class="cls-54" points="14.26 36.05 24.6 27.37 24.6 27.52 14.45 36.05 14.26 36.05"/><polygon class="cls-340" points="14.07 36.05 24.6 27.2 24.6 27.37 14.26 36.05 14.07 36.05"/><polygon class="cls-56" points="13.88 36.05 24.6 27.05 24.6 27.2 14.07 36.05 13.88 36.05"/><polygon class="cls-341" points="13.88 35.89 24.6 26.9 24.6 27.05 13.88 36.05 13.88 36.05 13.88 35.89"/><polygon class="cls-59" points="13.88 35.74 24.6 26.73 24.6 26.9 13.88 35.89 13.88 35.74"/><polygon class="cls-342" points="13.88 35.57 24.6 26.58 24.6 26.73 13.88 35.74 13.88 35.57"/><polygon class="cls-343" points="13.88 35.42 24.6 26.43 24.6 26.58 13.88 35.57 13.88 35.42"/><polygon class="cls-344" points="13.88 35.26 24.6 26.26 24.6 26.43 13.88 35.42 13.88 35.26"/><polygon class="cls-63" points="13.88 35.1 24.6 26.11 24.6 26.26 13.88 35.26 13.88 35.1"/><polygon class="cls-345" points="13.88 34.95 24.6 25.94 24.6 26.11 13.88 35.1 13.88 34.95"/><polygon class="cls-65" points="13.88 34.78 24.6 25.79 24.6 25.94 13.88 34.95 13.88 34.78"/><polygon class="cls-346" points="13.88 34.63 24.6 25.64 24.6 25.79 13.88 34.78 13.88 34.63"/><polygon class="cls-67" points="13.88 34.48 24.6 25.47 24.6 25.64 13.88 34.63 13.88 34.48"/><polygon class="cls-321" points="13.88 34.31 24.6 25.32 24.6 25.47 13.88 34.48 13.88 34.31"/><polygon class="cls-69" points="13.88 34.16 24.6 25.15 24.6 25.32 13.88 34.31 13.88 34.16"/><polygon class="cls-322" points="13.88 33.99 24.6 25 24.6 25.15 13.88 34.16 13.88 33.99"/><polygon class="cls-71" points="13.88 33.84 24.6 24.84 24.6 25 13.88 33.99 13.88 33.84"/><polygon class="cls-347" points="13.88 33.69 24.6 24.68 24.6 24.84 13.88 33.84 13.88 33.69"/><polygon class="cls-72" points="13.88 33.52 24.6 24.53 24.6 24.68 13.88 33.69 13.88 33.52"/><polygon class="cls-73" points="13.88 33.37 24.6 24.36 24.6 24.53 13.88 33.52 13.88 33.37"/><polygon class="cls-74" points="13.88 33.2 24.6 24.21 24.6 24.36 13.88 33.37 13.88 33.2"/><polygon class="cls-75" points="13.88 33.05 24.6 24.05 24.6 24.21 13.88 33.2 13.88 33.05"/><polygon class="cls-76" points="13.88 32.9 24.6 23.89 24.6 24.05 13.88 33.05 13.88 32.9"/><polygon class="cls-77" points="13.88 32.73 24.6 23.74 24.6 23.89 13.88 32.9 13.88 32.73"/><polygon class="cls-78" points="13.88 32.58 24.6 23.57 24.6 23.74 13.88 32.73 13.88 32.58"/><polygon class="cls-79" points="13.88 32.41 24.6 23.42 24.6 23.57 13.88 32.58 13.88 32.41"/><polygon class="cls-80" points="13.88 32.26 24.6 23.27 24.6 23.42 13.88 32.41 13.88 32.26"/><polygon class="cls-81" points="13.88 32.11 24.6 23.1 24.6 23.27 13.88 32.26 13.88 32.11"/><polygon class="cls-328" points="13.88 31.94 24.6 22.95 24.6 23.1 13.88 32.11 13.88 31.94"/><polygon class="cls-83" points="13.88 31.79 24.6 22.78 24.6 22.95 13.88 31.94 13.88 31.79"/><polygon class="cls-84" points="13.88 31.64 24.6 22.63 24.6 22.78 13.88 31.79 13.88 31.64"/><polygon class="cls-85" points="13.88 31.47 24.6 22.48 24.6 22.63 13.88 31.64 13.88 31.47"/><polygon class="cls-86" points="13.88 31.32 24.6 22.31 24.6 22.48 13.88 31.47 13.88 31.32"/><polygon class="cls-87" points="13.88 31.15 24.6 22.16 24.6 22.31 13.88 31.32 13.88 31.15"/><polygon class="cls-88" points="13.88 31 24.6 22 24.6 22.16 13.88 31.15 13.88 31"/><polygon class="cls-89" points="13.88 30.83 24.6 21.84 24.6 22 13.88 31 13.88 30.83"/><polygon class="cls-90" points="13.88 30.68 24.6 21.68 24.6 21.84 13.88 30.83 13.88 30.68"/><polygon class="cls-91" points="13.88 30.53 24.6 21.52 24.6 21.68 13.88 30.68 13.88 30.53"/><polygon class="cls-92" points="13.88 30.36 24.6 21.37 24.6 21.52 13.88 30.53 13.88 30.36"/><polygon class="cls-93" points="13.88 30.21 24.6 21.21 24.6 21.37 13.88 30.36 13.88 30.21"/><polygon class="cls-348" points="13.88 30.04 24.6 21.05 24.6 21.21 13.88 30.21 13.88 30.04"/><polygon class="cls-95" points="13.88 29.89 24.6 20.89 24.6 21.05 13.88 30.04 13.88 29.89"/><polygon class="cls-349" points="13.88 29.74 24.6 20.73 24.6 20.89 13.88 29.89 13.88 29.74"/><polygon class="cls-97" points="13.88 29.57 24.6 20.58 24.6 20.73 13.88 29.74 13.88 29.57"/><polygon class="cls-350" points="13.88 29.42 24.6 20.42 24.6 20.58 13.88 29.57 13.88 29.42"/><polygon class="cls-99" points="13.88 29.27 24.6 20.26 24.6 20.42 13.88 29.42 13.88 29.27"/><polygon class="cls-351" points="13.88 29.1 24.6 20.11 24.6 20.26 13.88 29.27 13.88 29.1"/><polygon class="cls-101" points="13.88 28.95 24.6 19.94 24.6 20.11 13.88 29.1 13.88 28.95"/><polygon class="cls-352" points="13.88 28.78 24.6 19.79 24.6 19.94 13.88 28.95 13.88 28.78"/><polygon class="cls-103" points="13.88 28.63 24.6 19.63 24.6 19.79 13.88 28.78 13.88 28.63"/><polygon class="cls-353" points="13.88 28.48 24.6 19.47 24.6 19.63 13.88 28.63 13.88 28.48"/><polygon class="cls-105" points="13.88 28.31 24.6 19.32 24.6 19.47 13.88 28.48 13.88 28.31"/><polygon class="cls-354" points="13.88 28.16 24.6 19.15 24.6 19.32 13.88 28.31 13.88 28.16"/><polygon class="cls-107" points="13.88 27.99 24.6 19 24.6 19.15 13.88 28.16 13.88 27.99"/><polygon class="cls-355" points="13.88 27.84 24.6 18.84 24.6 19 13.88 27.99 13.88 27.84"/><polygon class="cls-109" points="13.88 27.69 24.6 18.68 24.6 18.84 13.88 27.84 13.88 27.69"/><polygon class="cls-356" points="13.88 27.52 24.6 18.52 24.6 18.68 13.88 27.69 13.88 27.52"/><polygon class="cls-111" points="13.88 27.37 24.6 18.37 24.6 18.52 13.88 27.52 13.88 27.37"/><polygon class="cls-111" points="24.6 18.37 13.88 27.37 13.88 17.44 24.6 17.44 24.6 18.37"/></g></svg>