<svg xmlns="http://www.w3.org/2000/svg" xmlns:xlink="http://www.w3.org/1999/xlink" width="285.571" height="45.857" viewBox="0 0 285.571 45.857">
  <defs>
    <linearGradient id="linear-gradient" x1="0.021" y1="0.316" x2="1.008" y2="0.695" gradientUnits="objectBoundingBox">
      <stop offset="0" stop-color="#24699e"/>
      <stop offset="0.86" stop-color="#c5e5d7"/>
    </linearGradient>
    <linearGradient id="linear-gradient-2" x1="0.35" y1="0.653" x2="1.039" y2="0.008" gradientUnits="objectBoundingBox">
      <stop offset="0" stop-color="#f6bb35"/>
      <stop offset="0.86" stop-color="#f6bb35"/>
    </linearGradient>
    <linearGradient id="linear-gradient-3" y1="0.5" x2="1" y2="0.5" gradientUnits="objectBoundingBox">
      <stop offset="0" stop-color="#f6bb35"/>
      <stop offset="1" stop-color="#fff2df"/>
    </linearGradient>
    <linearGradient id="linear-gradient-4" x1="0" y1="0.5" x2="1" y2="0.5" xlink:href="#linear-gradient"/>
  </defs>
  <g id="Group_14451" data-name="Group 14451" transform="translate(-1103.846 -91)">
    <g id="Vector_Smart_Object1" data-name="Vector Smart Object1" transform="translate(1103.846 91)">
      <path id="Path_22404" data-name="Path 22404" d="M54.684,197.887H36.15l3.275-7.524a7.194,7.194,0,0,1,6.074-4.3,102.036,102.036,0,0,0,20.82-1.146q.581-.109,1.155-.225-1.422,3.318-2.843,6.638a10.821,10.821,0,0,1-9.948,6.56Z" transform="translate(-29.758 -152.031)" fill="url(#linear-gradient)"/>
      <path id="Path_22405" data-name="Path 22405" d="M109.336,109.742H101.25c3.65-3.116,8.525-17.563,13.314-26.945a9.024,9.024,0,0,1,8.014-5.086l7.289-.1-12.072,26.448a9.739,9.739,0,0,1-8.458,5.683Z" transform="translate(-83.346 -63.886)" fill="#24699e"/>
      <path id="Path_22406" data-name="Path 22406" d="M55.757,31.905l-8.007.226c3.65-3.116,8.525-17.563,13.314-26.945A9.02,9.02,0,0,1,69.076.1L76.365,0,64.055,26.6a9.145,9.145,0,0,1-8.3,5.3Z" transform="translate(-39.306)" fill="url(#linear-gradient-2)"/>
      <path id="Path_22407" data-name="Path 22407" d="M15.527,120.267H0l3.275-7.524a7.194,7.194,0,0,1,6.074-4.3,75.111,75.111,0,0,0,17.814-1.146q.581-.109,1.155-.225-1.422,3.318-2.843,6.638a10.821,10.821,0,0,1-9.948,6.56Z" transform="translate(0 -88.137)" fill="url(#linear-gradient-3)"/>
      <path id="Path_22408" data-name="Path 22408" d="M170.28,73.154h15.527l-3.275,7.524a7.556,7.556,0,0,1-2.437,3,7.733,7.733,0,0,1-3.637,1.3c-6.564.854-11.354-.012-17.814,1.146-.527.094-.944.18-1.155.225q1.422-3.318,2.843-6.638a10.821,10.821,0,0,1,9.948-6.56Z" transform="translate(-129.641 -60.215)" fill="url(#linear-gradient-4)"/>
    </g>
    <g id="Group_14448" data-name="Group 14448" transform="translate(1171.084 100.411)">
      <g id="Group_14446" data-name="Group 14446" transform="translate(0 0)">
        <path id="Path_22409" data-name="Path 22409" d="M-.152-4.759l2.838-.187a3.092,3.092,0,0,0,2.2-.84,3.274,3.274,0,0,0,.709-2.3V-26.79h5.862V-8.157q0,7.431-7.8,7.879L.184-.092ZM24.381-19.247q4.107,0,6.068,1.942t1.96,6.012V-.465h-5.34V-3.191A4.471,4.471,0,0,1,25.2-.969a5.732,5.732,0,0,1-3.062.8,7.528,7.528,0,0,1-3.379-.747A5.918,5.918,0,0,1,16.371-3a5.349,5.349,0,0,1-.877-2.987A4.614,4.614,0,0,1,16.52-9.165a6.136,6.136,0,0,1,3.3-1.68,29.19,29.19,0,0,1,6.236-.523h.971v-.672a3.1,3.1,0,0,0-.709-2.315,3.561,3.561,0,0,0-2.464-.672,10.634,10.634,0,0,0-2.987.485A14.533,14.533,0,0,0,17.734-13.2L16.24-16.97a15.3,15.3,0,0,1,3.865-1.624A15.681,15.681,0,0,1,24.381-19.247ZM23.372-4.05a3.424,3.424,0,0,0,2.651-1.1,4.066,4.066,0,0,0,1.008-2.857v-.635H26.4a12.759,12.759,0,0,0-4.238.485A1.757,1.757,0,0,0,20.945-6.4a2.248,2.248,0,0,0,.691,1.68A2.389,2.389,0,0,0,23.372-4.05Zm24.757-15.2a6.011,6.011,0,0,1,4.892,1.923q1.606,1.923,1.606,5.806V-.465H48.988V-11.257a4.341,4.341,0,0,0-.691-2.726,2.591,2.591,0,0,0-2.147-.859,3.708,3.708,0,0,0-2.819,1.12,4.158,4.158,0,0,0-1.064,2.987V-.465H36.628V-18.8h5.489v2.614a6.424,6.424,0,0,1,2.52-2.278A7.623,7.623,0,0,1,48.129-19.247Z" transform="translate(0.152 26.79)" fill="#f7bc38"/>
      </g>
      <path id="Path_22411" data-name="Path 22411" d="M11.878-.1A20.534,20.534,0,0,1,6.119-.9a13.639,13.639,0,0,1-4.6-2.225L3.39-7.277a14.638,14.638,0,0,0,8.563,2.655,7.379,7.379,0,0,0,3.8-.8,2.485,2.485,0,0,0,1.327-2.225A2.2,2.2,0,0,0,15.86-9.633a16.241,16.241,0,0,0-4.319-1.384,23.925,23.925,0,0,1-5.553-1.72A7.253,7.253,0,0,1,2.96-15.223a6.587,6.587,0,0,1-.953-3.646,7.18,7.18,0,0,1,1.327-4.263,8.847,8.847,0,0,1,3.72-2.935,13.488,13.488,0,0,1,5.534-1.066,17.8,17.8,0,0,1,5.4.823A11.074,11.074,0,0,1,22.123-24.1l-1.87,4.151a12.717,12.717,0,0,0-7.628-2.655,6.372,6.372,0,0,0-3.59.879,2.757,2.757,0,0,0-1.309,2.412,2.167,2.167,0,0,0,.5,1.477,4.193,4.193,0,0,0,1.683,1.028,25.707,25.707,0,0,0,3.347.935q5.085,1.122,7.31,2.879A5.851,5.851,0,0,1,22.8-8.137a6.951,6.951,0,0,1-2.879,5.889Q17.038-.1,11.878-.1Zm32.344-18.7V-.434h-5.5V-3.052A5.81,5.81,0,0,1,36.463-.883a6.608,6.608,0,0,1-3.16.748,6.554,6.554,0,0,1-5.179-1.926q-1.7-1.926-1.7-5.814V-18.794h5.646V-7.763a3.6,3.6,0,0,0,.692,2.43,2.67,2.67,0,0,0,2.113.785,3.459,3.459,0,0,0,2.674-1.122,4.2,4.2,0,0,0,1.028-2.954V-18.794Zm17.462,4.188-3.178.337a4.916,4.916,0,0,0-3.328,1.327,4.278,4.278,0,0,0-.972,2.935V-.434H48.559V-18.794h5.422v3.1q1.383-3.178,5.721-3.477l1.645-.112ZM71.7-19.242q4.113,0,6.076,1.944t1.963,6.02V-.434H74.4v-2.73a4.477,4.477,0,0,1-1.87,2.225,5.74,5.74,0,0,1-3.066.8,7.538,7.538,0,0,1-3.384-.748,5.927,5.927,0,0,1-2.393-2.094,5.356,5.356,0,0,1-.879-2.991,4.62,4.62,0,0,1,1.028-3.178,6.144,6.144,0,0,1,3.309-1.683,29.23,29.23,0,0,1,6.244-.523h.972v-.673a3.107,3.107,0,0,0-.71-2.318,3.566,3.566,0,0,0-2.468-.673,10.649,10.649,0,0,0-2.991.486,14.553,14.553,0,0,0-3.141,1.346l-1.5-3.777a15.318,15.318,0,0,1,3.87-1.627A15.7,15.7,0,0,1,71.7-19.242ZM70.695-4.024a3.428,3.428,0,0,0,2.655-1.1,4.071,4.071,0,0,0,1.01-2.86v-.636h-.636a12.777,12.777,0,0,0-4.244.486A1.759,1.759,0,0,0,68.265-6.38,2.251,2.251,0,0,0,68.956-4.7,2.393,2.393,0,0,0,70.695-4.024Zm25.95,3.59-7.03-8.189V-.434H83.969V-26.8h5.646v15.854l6.768-7.815h6.731l-7.7,8.75,8.151,9.572Zm15.069.3a17.569,17.569,0,0,1-4.655-.58,11.544,11.544,0,0,1-3.646-1.664l1.5-3.889A12.517,12.517,0,0,0,108.2-4.7a12.1,12.1,0,0,0,3.627.561,4.03,4.03,0,0,0,2.038-.43,1.315,1.315,0,0,0,.729-1.178,1.228,1.228,0,0,0-.5-1.047,5.327,5.327,0,0,0-1.888-.673l-2.991-.673A7.9,7.9,0,0,1,105.3-9.988a4.623,4.623,0,0,1-1.253-3.421,4.88,4.88,0,0,1,.991-3.029,6.545,6.545,0,0,1,2.8-2.057,10.759,10.759,0,0,1,4.132-.748,12.56,12.56,0,0,1,3.851.6,11.83,11.83,0,0,1,3.365,1.683l-1.5,3.739a10.1,10.1,0,0,0-5.758-2.019,4,4,0,0,0-2.057.449,1.408,1.408,0,0,0-.748,1.271,1.1,1.1,0,0,0,.449.935,4.874,4.874,0,0,0,1.57.636l3.1.71a8.316,8.316,0,0,1,4.094,1.926,4.724,4.724,0,0,1,1.29,3.5,4.851,4.851,0,0,1-2.113,4.169A9.821,9.821,0,0,1,111.714-.135Zm22.659-19.107a6.019,6.019,0,0,1,4.9,1.926q1.608,1.926,1.608,5.814V-.434h-5.646V-11.24a4.347,4.347,0,0,0-.692-2.73,2.6,2.6,0,0,0-2.15-.86,3.713,3.713,0,0,0-2.823,1.122,4.164,4.164,0,0,0-1.066,2.991V-.434h-5.646V-26.8H128.5v10.432a6.264,6.264,0,0,1,2.487-2.15A7.7,7.7,0,0,1,134.373-19.242Zm18.883,0q4.113,0,6.076,1.944t1.963,6.02V-.434h-5.347v-2.73a4.477,4.477,0,0,1-1.87,2.225,5.74,5.74,0,0,1-3.066.8,7.538,7.538,0,0,1-3.384-.748,5.927,5.927,0,0,1-2.393-2.094,5.356,5.356,0,0,1-.879-2.991,4.62,4.62,0,0,1,1.028-3.178,6.144,6.144,0,0,1,3.309-1.683,29.231,29.231,0,0,1,6.244-.523h.972v-.673a3.107,3.107,0,0,0-.71-2.318,3.566,3.566,0,0,0-2.468-.673,10.649,10.649,0,0,0-2.991.486,14.553,14.553,0,0,0-3.141,1.346l-1.5-3.777a15.318,15.318,0,0,1,3.87-1.627A15.7,15.7,0,0,1,153.256-19.242Zm-1.01,15.219a3.429,3.429,0,0,0,2.655-1.1,4.071,4.071,0,0,0,1.01-2.86v-.636h-.636a12.777,12.777,0,0,0-4.244.486,1.759,1.759,0,0,0-1.215,1.757,2.251,2.251,0,0,0,.692,1.683A2.393,2.393,0,0,0,152.247-4.024Z" transform="translate(57.038 27.132)" fill="#23699e"/>
    </g>
  </g>
</svg>
